<?xml version="1.0" standalone="no"?>
<!DOCTYPE svg PUBLIC "-//W3C//DTD SVG 20010904//EN"
 "http://www.w3.org/TR/2001/REC-SVG-20010904/DTD/svg10.dtd">
<svg version="1.0" xmlns="http://www.w3.org/2000/svg"
 width="155.000000pt" height="155.000000pt" viewBox="0 0 155.000000 155.000000"
 preserveAspectRatio="xMidYMid meet">
<metadata>
Created by potrace 1.11, written by Peter Selinger 2001-2013
</metadata>
<g transform="translate(0.000000,155.000000) scale(0.100000,-0.100000)"
fill="#000000" stroke="none">
<path d="M175 1516 c-27 -13 -68 -42 -90 -65 l-39 -41 164 0 c91 -1 183 -3
205 -6 260 -34 410 -207 399 -460 -8 -171 -107 -312 -259 -369 -28 -10 -51
-20 -53 -21 -2 -1 35 -41 82 -89 l86 -86 0 106 0 106 143 -2 c152 -1 201 -11
244 -51 40 -36 62 -96 58 -150 -11 -121 -82 -167 -257 -168 -43 0 -79 -3 -79
-7 -1 -5 -2 -54 -3 -110 l-2 -103 281 0 281 0 51 26 c60 29 117 88 144 148 17
38 19 75 19 597 l0 555 -26 51 c-29 60 -88 117 -148 144 -39 17 -74 19 -596
19 l-555 0 -50 -24z"/>
<path d="M2 1253 l0 -51 186 -4 c165 -3 192 -5 233 -24 84 -39 128 -100 136
-191 7 -70 -11 -133 -53 -181 -50 -59 -97 -74 -246 -80 l-128 -4 -1 -142 c-1
-77 -2 -157 -3 -176 l-1 -35 -60 0 -60 0 2 -77 c4 -123 61 -213 168 -264 48
-23 59 -24 273 -24 l222 0 0 99 0 100 -167 170 c-93 93 -192 194 -221 223
l-53 54 73 -1 c152 -2 247 31 314 109 104 121 97 334 -14 449 -80 83 -142 99
-398 101 l-201 1 -1 -52z"/>
<path d="M130 960 l0 -132 109 4 c127 4 156 17 181 86 13 37 13 47 0 84 -25
68 -53 82 -181 86 l-109 4 0 -132z"/>
<path d="M779 508 c-1 -2 -2 -50 -3 -106 l-2 -104 94 4 c88 3 95 5 118 31 46
54 26 144 -38 166 -26 9 -166 16 -169 9z"/>
</g>
</svg>
